<mxfile modified="2022-06-27T04:58:43.209Z" host="app.diagrams.net" agent="5.0 (Windows NT 10.0; Win64; x64) AppleWebKit/537.36 (KHTML, like Gecko) Chrome/102.0.0.0 Safari/537.36" etag="qfMEtuu1qFROqgNDt4JT" version="20.0.1" type="github">
  <diagram id="MtmZOAOCrzwKyNcI15zQ" name="Page-2">
    <mxGraphModel dx="1422" dy="786" grid="1" gridSize="10" guides="1" tooltips="1" connect="1" arrows="1" fold="1" page="1" pageScale="1" pageWidth="850" pageHeight="1100" math="0" shadow="0">
      <root>
        <mxCell id="0" />
        <mxCell id="1" parent="0" />
        <mxCell id="R9C1y7ylhDPsS5qmP1jt-40" value="" style="whiteSpace=wrap;html=1;rounded=1;glass=0;gradientColor=#ffffff;" vertex="1" parent="1">
          <mxGeometry x="10" y="10" width="830" height="640" as="geometry" />
        </mxCell>
        <mxCell id="R9C1y7ylhDPsS5qmP1jt-27" style="edgeStyle=orthogonalEdgeStyle;rounded=0;orthogonalLoop=1;jettySize=auto;html=1;exitX=1;exitY=0.5;exitDx=0;exitDy=0;entryX=0.25;entryY=1;entryDx=0;entryDy=0;entryPerimeter=0;endArrow=none;endFill=0;" edge="1" parent="1" source="R9C1y7ylhDPsS5qmP1jt-23" target="R9C1y7ylhDPsS5qmP1jt-1">
          <mxGeometry relative="1" as="geometry" />
        </mxCell>
        <mxCell id="R9C1y7ylhDPsS5qmP1jt-23" value="" style="whiteSpace=wrap;html=1;rounded=1;glass=0;" vertex="1" parent="1">
          <mxGeometry x="110" y="500" width="180" height="90" as="geometry" />
        </mxCell>
        <mxCell id="R9C1y7ylhDPsS5qmP1jt-26" style="edgeStyle=orthogonalEdgeStyle;rounded=0;orthogonalLoop=1;jettySize=auto;html=1;exitX=0;exitY=0.5;exitDx=0;exitDy=0;entryX=0.75;entryY=1;entryDx=0;entryDy=0;entryPerimeter=0;endArrow=none;endFill=0;" edge="1" parent="1" source="R9C1y7ylhDPsS5qmP1jt-22" target="R9C1y7ylhDPsS5qmP1jt-1">
          <mxGeometry relative="1" as="geometry" />
        </mxCell>
        <mxCell id="R9C1y7ylhDPsS5qmP1jt-22" value="" style="whiteSpace=wrap;html=1;rounded=1;glass=0;" vertex="1" parent="1">
          <mxGeometry x="530" y="500" width="180" height="90" as="geometry" />
        </mxCell>
        <mxCell id="R9C1y7ylhDPsS5qmP1jt-25" style="edgeStyle=orthogonalEdgeStyle;rounded=0;orthogonalLoop=1;jettySize=auto;html=1;exitX=0;exitY=0.5;exitDx=0;exitDy=0;entryX=1;entryY=0.5;entryDx=0;entryDy=0;entryPerimeter=0;endArrow=none;endFill=0;" edge="1" parent="1" source="R9C1y7ylhDPsS5qmP1jt-21" target="R9C1y7ylhDPsS5qmP1jt-1">
          <mxGeometry relative="1" as="geometry" />
        </mxCell>
        <mxCell id="R9C1y7ylhDPsS5qmP1jt-21" value="" style="whiteSpace=wrap;html=1;rounded=1;glass=0;" vertex="1" parent="1">
          <mxGeometry x="550" y="315" width="240" height="100" as="geometry" />
        </mxCell>
        <mxCell id="R9C1y7ylhDPsS5qmP1jt-28" style="edgeStyle=orthogonalEdgeStyle;rounded=0;orthogonalLoop=1;jettySize=auto;html=1;exitX=0.5;exitY=0;exitDx=0;exitDy=0;exitPerimeter=0;entryX=0.5;entryY=1;entryDx=0;entryDy=0;entryPerimeter=0;endArrow=none;endFill=0;" edge="1" parent="1" source="R9C1y7ylhDPsS5qmP1jt-1" target="R9C1y7ylhDPsS5qmP1jt-4">
          <mxGeometry relative="1" as="geometry" />
        </mxCell>
        <mxCell id="R9C1y7ylhDPsS5qmP1jt-1" value="L2 Switch" style="sketch=0;points=[[0.015,0.015,0],[0.985,0.015,0],[0.985,0.985,0],[0.015,0.985,0],[0.25,0,0],[0.5,0,0],[0.75,0,0],[1,0.25,0],[1,0.5,0],[1,0.75,0],[0.75,1,0],[0.5,1,0],[0.25,1,0],[0,0.75,0],[0,0.5,0],[0,0.25,0]];verticalLabelPosition=bottom;html=1;verticalAlign=top;aspect=fixed;align=center;pointerEvents=1;shape=mxgraph.cisco19.rect;prIcon=l2_switch;fillColor=#FAFAFA;strokeColor=#005073;" vertex="1" parent="1">
          <mxGeometry x="380" y="340" width="50" height="50" as="geometry" />
        </mxCell>
        <mxCell id="R9C1y7ylhDPsS5qmP1jt-33" style="edgeStyle=orthogonalEdgeStyle;rounded=0;orthogonalLoop=1;jettySize=auto;html=1;exitX=0;exitY=0.5;exitDx=0;exitDy=0;exitPerimeter=0;entryX=0.41;entryY=1;entryDx=0;entryDy=0;entryPerimeter=0;endArrow=none;endFill=0;curved=1;" edge="1" parent="1" source="R9C1y7ylhDPsS5qmP1jt-2" target="R9C1y7ylhDPsS5qmP1jt-5">
          <mxGeometry relative="1" as="geometry" />
        </mxCell>
        <mxCell id="R9C1y7ylhDPsS5qmP1jt-2" value="CPE Router" style="sketch=0;points=[[0.5,0,0],[1,0.5,0],[0.5,1,0],[0,0.5,0],[0.145,0.145,0],[0.8555,0.145,0],[0.855,0.8555,0],[0.145,0.855,0]];verticalLabelPosition=bottom;html=1;verticalAlign=top;aspect=fixed;align=center;pointerEvents=1;shape=mxgraph.cisco19.rect;prIcon=router;fillColor=#FAFAFA;strokeColor=#005073;" vertex="1" parent="1">
          <mxGeometry x="380" y="90" width="50" height="50" as="geometry" />
        </mxCell>
        <mxCell id="R9C1y7ylhDPsS5qmP1jt-3" value="AP 1" style="points=[[0.03,0.36,0],[0.18,0,0],[0.5,0.34,0],[0.82,0,0],[0.97,0.36,0],[1,0.67,0],[0.975,0.975,0],[0.5,1,0],[0.025,0.975,0],[0,0.67,0]];verticalLabelPosition=bottom;sketch=0;html=1;verticalAlign=top;aspect=fixed;align=center;pointerEvents=1;shape=mxgraph.cisco19.wireless_access_point;fillColor=#005073;strokeColor=none;" vertex="1" parent="1">
          <mxGeometry x="550" y="510" width="50" height="50" as="geometry" />
        </mxCell>
        <mxCell id="R9C1y7ylhDPsS5qmP1jt-29" style="edgeStyle=orthogonalEdgeStyle;rounded=0;orthogonalLoop=1;jettySize=auto;html=1;exitX=0.5;exitY=0;exitDx=0;exitDy=0;exitPerimeter=0;entryX=0.5;entryY=1;entryDx=0;entryDy=0;entryPerimeter=0;endArrow=none;endFill=0;" edge="1" parent="1" source="R9C1y7ylhDPsS5qmP1jt-4" target="R9C1y7ylhDPsS5qmP1jt-2">
          <mxGeometry relative="1" as="geometry" />
        </mxCell>
        <mxCell id="R9C1y7ylhDPsS5qmP1jt-4" value="Office Firewall" style="sketch=0;points=[[0.015,0.015,0],[0.985,0.015,0],[0.985,0.985,0],[0.015,0.985,0],[0.25,0,0],[0.5,0,0],[0.75,0,0],[1,0.25,0],[1,0.5,0],[1,0.75,0],[0.75,1,0],[0.5,1,0],[0.25,1,0],[0,0.75,0],[0,0.5,0],[0,0.25,0]];verticalLabelPosition=bottom;html=1;verticalAlign=top;aspect=fixed;align=center;pointerEvents=1;shape=mxgraph.cisco19.rect;prIcon=firewall;fillColor=#FAFAFA;strokeColor=#005073;" vertex="1" parent="1">
          <mxGeometry x="373" y="200" width="64" height="50" as="geometry" />
        </mxCell>
        <mxCell id="R9C1y7ylhDPsS5qmP1jt-5" value="Internet" style="points=[[0,0.64,0],[0.2,0.15,0],[0.4,0.01,0],[0.79,0.25,0],[1,0.65,0],[0.8,0.86,0],[0.41,1,0],[0.16,0.86,0]];verticalLabelPosition=bottom;sketch=0;html=1;verticalAlign=top;aspect=fixed;align=center;pointerEvents=1;shape=mxgraph.cisco19.cloud2;fillColor=#ffcd28;strokeColor=#d79b00;gradientColor=#ffa500;" vertex="1" parent="1">
          <mxGeometry x="206" y="38" width="66.67" height="40" as="geometry" />
        </mxCell>
        <mxCell id="R9C1y7ylhDPsS5qmP1jt-6" value="Office User" style="points=[[0.35,0,0],[0.98,0.51,0],[1,0.71,0],[0.67,1,0],[0,0.795,0],[0,0.65,0]];verticalLabelPosition=bottom;sketch=0;html=1;verticalAlign=top;aspect=fixed;align=center;pointerEvents=1;shape=mxgraph.cisco19.user;fillColor=#005073;strokeColor=none;" vertex="1" parent="1">
          <mxGeometry x="127" y="510" width="50" height="50" as="geometry" />
        </mxCell>
        <mxCell id="R9C1y7ylhDPsS5qmP1jt-8" value="2 Web&lt;br&gt;Servers" style="sketch=0;points=[[0.015,0.015,0],[0.985,0.015,0],[0.985,0.985,0],[0.015,0.985,0],[0.25,0,0],[0.5,0,0],[0.75,0,0],[1,0.25,0],[1,0.5,0],[1,0.75,0],[0.75,1,0],[0.5,1,0],[0.25,1,0],[0,0.75,0],[0,0.5,0],[0,0.25,0]];verticalLabelPosition=bottom;html=1;verticalAlign=top;aspect=fixed;align=center;pointerEvents=1;shape=mxgraph.cisco19.server;fillColor=#005073;strokeColor=none;" vertex="1" parent="1">
          <mxGeometry x="611.25" y="325" width="27.500000000000004" height="50" as="geometry" />
        </mxCell>
        <mxCell id="R9C1y7ylhDPsS5qmP1jt-9" value="DNS&lt;br&gt;Server" style="sketch=0;points=[[0.015,0.015,0],[0.985,0.015,0],[0.985,0.985,0],[0.015,0.985,0],[0.25,0,0],[0.5,0,0],[0.75,0,0],[1,0.25,0],[1,0.5,0],[1,0.75,0],[0.75,1,0],[0.5,1,0],[0.25,1,0],[0,0.75,0],[0,0.5,0],[0,0.25,0]];verticalLabelPosition=bottom;html=1;verticalAlign=top;aspect=fixed;align=center;pointerEvents=1;shape=mxgraph.cisco19.dns_server;fillColor=#005073;strokeColor=none;" vertex="1" parent="1">
          <mxGeometry x="654" y="325" width="27.500000000000004" height="50" as="geometry" />
        </mxCell>
        <mxCell id="R9C1y7ylhDPsS5qmP1jt-10" value="AD&lt;br&gt;Server" style="sketch=0;points=[[0.015,0.015,0],[0.985,0.015,0],[0.985,0.985,0],[0.015,0.985,0],[0.25,0,0],[0.5,0,0],[0.75,0,0],[1,0.25,0],[1,0.5,0],[1,0.75,0],[0.75,1,0],[0.5,1,0],[0.25,1,0],[0,0.75,0],[0,0.5,0],[0,0.25,0]];verticalLabelPosition=bottom;html=1;verticalAlign=top;aspect=fixed;align=center;pointerEvents=1;shape=mxgraph.cisco19.server;fillColor=#005073;strokeColor=none;" vertex="1" parent="1">
          <mxGeometry x="700" y="325" width="27.500000000000004" height="50" as="geometry" />
        </mxCell>
        <mxCell id="R9C1y7ylhDPsS5qmP1jt-11" value="MX&lt;br&gt;Server" style="sketch=0;points=[[0.015,0.015,0],[0.985,0.015,0],[0.985,0.985,0],[0.015,0.985,0],[0.25,0,0],[0.5,0,0],[0.75,0,0],[1,0.25,0],[1,0.5,0],[1,0.75,0],[0.75,1,0],[0.5,1,0],[0.25,1,0],[0,0.75,0],[0,0.5,0],[0,0.25,0]];verticalLabelPosition=bottom;html=1;verticalAlign=top;aspect=fixed;align=center;pointerEvents=1;shape=mxgraph.cisco19.server;fillColor=#005073;strokeColor=none;" vertex="1" parent="1">
          <mxGeometry x="750" y="325" width="27.500000000000004" height="50" as="geometry" />
        </mxCell>
        <mxCell id="R9C1y7ylhDPsS5qmP1jt-14" value="IT Admin" style="points=[[0.35,0,0],[0.98,0.51,0],[1,0.71,0],[0.67,1,0],[0,0.795,0],[0,0.65,0]];verticalLabelPosition=bottom;sketch=0;html=1;verticalAlign=top;aspect=fixed;align=center;pointerEvents=1;shape=mxgraph.cisco19.user;fillColor=#005073;strokeColor=none;" vertex="1" parent="1">
          <mxGeometry x="221" y="510" width="50" height="50" as="geometry" />
        </mxCell>
        <mxCell id="R9C1y7ylhDPsS5qmP1jt-15" value="AP 2" style="points=[[0.03,0.36,0],[0.18,0,0],[0.5,0.34,0],[0.82,0,0],[0.97,0.36,0],[1,0.67,0],[0.975,0.975,0],[0.5,1,0],[0.025,0.975,0],[0,0.67,0]];verticalLabelPosition=bottom;sketch=0;html=1;verticalAlign=top;aspect=fixed;align=center;pointerEvents=1;shape=mxgraph.cisco19.wireless_access_point;fillColor=#005073;strokeColor=none;" vertex="1" parent="1">
          <mxGeometry x="634.75" y="510" width="50" height="50" as="geometry" />
        </mxCell>
        <mxCell id="R9C1y7ylhDPsS5qmP1jt-16" value="OVPN&lt;br&gt;Server" style="sketch=0;points=[[0.015,0.015,0],[0.985,0.015,0],[0.985,0.985,0],[0.015,0.985,0],[0.25,0,0],[0.5,0,0],[0.75,0,0],[1,0.25,0],[1,0.5,0],[1,0.75,0],[0.75,1,0],[0.5,1,0],[0.25,1,0],[0,0.75,0],[0,0.5,0],[0,0.25,0]];verticalLabelPosition=bottom;html=1;verticalAlign=top;aspect=fixed;align=center;pointerEvents=1;shape=mxgraph.cisco19.server;fillColor=#005073;strokeColor=none;" vertex="1" parent="1">
          <mxGeometry x="565.25" y="325" width="27.500000000000004" height="50" as="geometry" />
        </mxCell>
        <mxCell id="R9C1y7ylhDPsS5qmP1jt-34" style="edgeStyle=orthogonalEdgeStyle;rounded=0;orthogonalLoop=1;jettySize=auto;html=1;exitX=0.98;exitY=0.51;exitDx=0;exitDy=0;exitPerimeter=0;entryX=0;entryY=0.5;entryDx=0;entryDy=0;entryPerimeter=0;endArrow=none;endFill=0;curved=1;fillColor=#0050ef;strokeColor=#001DBC;strokeWidth=2;dashed=1;" edge="1" parent="1" source="R9C1y7ylhDPsS5qmP1jt-17" target="R9C1y7ylhDPsS5qmP1jt-16">
          <mxGeometry relative="1" as="geometry">
            <Array as="points">
              <mxPoint x="200" y="366" />
              <mxPoint x="200" y="30" />
              <mxPoint x="410" y="30" />
              <mxPoint x="410" y="350" />
            </Array>
          </mxGeometry>
        </mxCell>
        <mxCell id="R9C1y7ylhDPsS5qmP1jt-17" value="Remote User&lt;br&gt;VPN Client" style="points=[[0.35,0,0],[0.98,0.51,0],[1,0.71,0],[0.67,1,0],[0,0.795,0],[0,0.65,0]];verticalLabelPosition=bottom;sketch=0;html=1;verticalAlign=top;aspect=fixed;align=center;pointerEvents=1;shape=mxgraph.cisco19.user;fillColor=#005073;strokeColor=none;" vertex="1" parent="1">
          <mxGeometry x="60" y="340" width="50" height="50" as="geometry" />
        </mxCell>
        <mxCell id="R9C1y7ylhDPsS5qmP1jt-35" value="Network : (VLAN1)&amp;nbsp;&lt;br&gt;192.168.2.0/24" style="text;html=1;resizable=0;autosize=1;align=center;verticalAlign=middle;points=[];fillColor=none;strokeColor=none;rounded=0;glass=0;" vertex="1" parent="1">
          <mxGeometry x="279" y="310" width="120" height="30" as="geometry" />
        </mxCell>
        <mxCell id="R9C1y7ylhDPsS5qmP1jt-36" value="Network :&amp;nbsp;&lt;br&gt;192.168.50.0/24" style="text;html=1;resizable=0;autosize=1;align=center;verticalAlign=middle;points=[];fillColor=none;strokeColor=none;rounded=0;glass=0;" vertex="1" parent="1">
          <mxGeometry x="27.00000000000003" y="295" width="100" height="30" as="geometry" />
        </mxCell>
        <mxCell id="R9C1y7ylhDPsS5qmP1jt-37" value="Network :&amp;nbsp;&lt;br&gt;177.10.16.32/29" style="text;html=1;resizable=0;autosize=1;align=center;verticalAlign=middle;points=[];fillColor=none;strokeColor=none;rounded=0;glass=0;" vertex="1" parent="1">
          <mxGeometry x="290" y="160" width="100" height="30" as="geometry" />
        </mxCell>
        <mxCell id="R9C1y7ylhDPsS5qmP1jt-38" value="NATed&amp;nbsp;&lt;br&gt;OVPN, Web &amp;amp; MX" style="text;html=1;resizable=0;autosize=1;align=center;verticalAlign=middle;points=[];fillColor=none;strokeColor=none;rounded=0;glass=0;" vertex="1" parent="1">
          <mxGeometry x="440" y="210" width="110" height="30" as="geometry" />
        </mxCell>
      </root>
    </mxGraphModel>
  </diagram>
</mxfile>
